<svg width="18" height="21" viewBox="0 0 18 21" fill="none" xmlns="http://www.w3.org/2000/svg">
<path d="M2.625 6.5625C3.24632 6.5625 3.75 5.97487 3.75 5.25C3.75 4.52513 3.24632 3.9375 2.625 3.9375C2.00368 3.9375 1.5 4.52513 1.5 5.25C1.5 5.97487 2.00368 6.5625 2.625 6.5625Z" fill="black"/>
<path d="M6 4.375C5.58579 4.375 5.25 4.76675 5.25 5.25C5.25 5.73325 5.58579 6.125 6 6.125H15.75C16.1642 6.125 16.5 5.73325 16.5 5.25C16.5 4.76675 16.1642 4.375 15.75 4.375H6Z" fill="black"/>
<path d="M6 9.625C5.58579 9.625 5.25 10.0168 5.25 10.5C5.25 10.9832 5.58579 11.375 6 11.375H15.75C16.1642 11.375 16.5 10.9832 16.5 10.5C16.5 10.0168 16.1642 9.625 15.75 9.625H6Z" fill="black"/>
<path d="M5.25 15.75C5.25 15.2668 5.58579 14.875 6 14.875H15.75C16.1642 14.875 16.5 15.2668 16.5 15.75C16.5 16.2332 16.1642 16.625 15.75 16.625H6C5.58579 16.625 5.25 16.2332 5.25 15.75Z" fill="black"/>
<path d="M3.75 10.5C3.75 11.2249 3.24632 11.8125 2.625 11.8125C2.00368 11.8125 1.5 11.2249 1.5 10.5C1.5 9.77513 2.00368 9.1875 2.625 9.1875C3.24632 9.1875 3.75 9.77513 3.75 10.5Z" fill="black"/>
<path d="M2.625 17.0625C3.24632 17.0625 3.75 16.4749 3.75 15.75C3.75 15.0251 3.24632 14.4375 2.625 14.4375C2.00368 14.4375 1.5 15.0251 1.5 15.75C1.5 16.4749 2.00368 17.0625 2.625 17.0625Z" fill="black"/>
</svg>
