<svg width="17" height="17" viewBox="0 0 17 17" fill="none" xmlns="http://www.w3.org/2000/svg">
<path d="M2.12435 1.41699C1.73315 1.41699 1.41602 1.73412 1.41602 2.12533V7.08366C1.41602 7.47486 1.73315 7.79199 2.12435 7.79199H7.08268C7.47388 7.79199 7.79102 7.47486 7.79102 7.08366V2.12533C7.79102 1.73412 7.47388 1.41699 7.08268 1.41699H2.12435Z" fill="#868E96"/>
<path d="M9.91602 1.41699C9.52481 1.41699 9.20768 1.73412 9.20768 2.12533V7.08366C9.20768 7.47486 9.52481 7.79199 9.91602 7.79199H14.8743C15.2655 7.79199 15.5827 7.47486 15.5827 7.08366V2.12533C15.5827 1.73412 15.2655 1.41699 14.8743 1.41699H9.91602Z" fill="#868E96"/>
<path d="M9.91602 9.20866C9.52481 9.20866 9.20768 9.52579 9.20768 9.91699V14.8753C9.20768 15.2665 9.52481 15.5837 9.91602 15.5837H14.8743C15.2655 15.5837 15.5827 15.2665 15.5827 14.8753V9.91699C15.5827 9.52579 15.2655 9.20866 14.8743 9.20866H9.91602Z" fill="#868E96"/>
<path d="M2.12435 9.20866C1.73315 9.20866 1.41602 9.52579 1.41602 9.91699V14.8753C1.41602 15.2665 1.73315 15.5837 2.12435 15.5837H7.08268C7.47388 15.5837 7.79102 15.2665 7.79102 14.8753V9.91699C7.79102 9.52579 7.47388 9.20866 7.08268 9.20866H2.12435Z" fill="#868E96"/>
</svg>
