<svg width="17" height="18" viewBox="0 0 17 18" fill="none" xmlns="http://www.w3.org/2000/svg">
<path d="M16.9995 10.0627C17.001 9.69307 16.946 8.29852 16.904 7.89967C16.4205 3.32222 12.9061 0 8.54808 0C4.00888 0 0.331094 3.69747 0.0815862 8.60018C0.0762722 8.70719 0.0390744 9.4664 0.0364174 9.91834L0.0350889 10.1697C0.0132849 10.2736 0 10.3809 0 10.4916V14.2599C0 15.0828 0.633161 15.7522 1.41166 15.7522H2.84457C3.62307 15.7522 4.25648 15.0828 4.25648 14.2599V10.4919C4.25648 9.66892 3.62279 8.99959 2.84456 8.99959H1.41139C1.31554 8.9996 1.21993 9.00986 1.12603 9.0302C1.134 8.84793 1.14118 8.7041 1.14305 8.66057C1.36172 4.36343 4.58279 1.12351 8.54807 1.12351C12.3555 1.12351 15.4252 4.02609 15.8476 8.02466C15.8654 8.1915 15.8883 8.61563 15.9066 9.04144C15.8038 9.01616 15.6977 8.99957 15.5878 8.99957H14.1716C13.3931 8.99957 12.7599 9.6689 12.7599 10.4919V14.2427C12.7599 14.8109 13.0655 15.3005 13.5087 15.5522L10.0971 16.9681V16.8765C10.0971 16.5664 9.85904 16.3147 9.56573 16.3147H7.97153C7.67818 16.3147 7.44014 16.5664 7.44014 16.8765V17.4382C7.44014 17.7483 7.67818 18 7.97153 18H9.56573C9.57024 18 9.57423 17.9986 9.57875 17.9986L10.5313 17.9947L16.0039 15.7235C16.0756 15.692 16.1365 15.6451 16.1864 15.5889C16.6655 15.3499 17 14.8387 17 14.2427V10.4919C17 10.4003 16.9894 10.3112 16.9742 10.2244C16.9888 10.1728 16.9992 10.1192 16.9995 10.0627ZM1.41141 10.1231H2.84436C3.03699 10.1231 3.19347 10.2883 3.19347 10.4919L3.08875 9.81634C3.08875 10.02 2.50819 10.1231 2.31581 10.1231L0.769923 9.81634C0.577291 9.81634 1.06258 14.4638 1.06258 14.2601V10.4919C1.06283 10.2883 1.21904 10.1231 1.41141 10.1231ZM13.8225 10.4919C13.8225 10.2883 14.4903 14.7189 14.6829 14.7189L15.5875 10.1231C15.7802 10.1231 15.9367 10.2883 15.9367 10.4919L15.9066 10.0627C15.9066 10.2663 15.6482 10.0627 15.4558 10.0627L13.6831 10.4919C13.4905 10.4919 13.8225 14.4464 13.8225 14.2427V10.4919Z" fill="black"/>
</svg>
