<svg width="40" height="35" viewBox="0 0 40 35" fill="none" xmlns="http://www.w3.org/2000/svg">
<path d="M35 4.5H29.8025L27.2469 0.6675C27.11 0.462284 26.9245 0.294006 26.707 0.177573C26.4896 0.0611404 26.2467 0.000148134 26 0H14C13.7533 0.000148134 13.5104 0.0611404 13.293 0.177573C13.0755 0.294006 12.89 0.462284 12.7531 0.6675L10.1956 4.5H5C3.80653 4.5 2.66193 4.97411 1.81802 5.81802C0.974106 6.66193 0.5 7.80653 0.5 9V30C0.5 31.1935 0.974106 32.3381 1.81802 33.182C2.66193 34.0259 3.80653 34.5 5 34.5H35C36.1935 34.5 37.3381 34.0259 38.182 33.182C39.0259 32.3381 39.5 31.1935 39.5 30V9C39.5 7.80653 39.0259 6.66193 38.182 5.81802C37.3381 4.97411 36.1935 4.5 35 4.5ZM36.5 30C36.5 30.3978 36.342 30.7794 36.0607 31.0607C35.7794 31.342 35.3978 31.5 35 31.5H5C4.60218 31.5 4.22064 31.342 3.93934 31.0607C3.65804 30.7794 3.5 30.3978 3.5 30V9C3.5 8.60218 3.65804 8.22064 3.93934 7.93934C4.22064 7.65804 4.60218 7.5 5 7.5H11C11.247 7.50016 11.4902 7.43932 11.7081 7.32287C11.9259 7.20642 12.1117 7.03798 12.2488 6.8325L14.8025 3H25.1956L27.7512 6.8325C27.8883 7.03798 28.0741 7.20642 28.2919 7.32287C28.5098 7.43932 28.753 7.50016 29 7.5H35C35.3978 7.5 35.7794 7.65804 36.0607 7.93934C36.342 8.22064 36.5 8.60218 36.5 9V30ZM20 10.5C18.3683 10.5 16.7733 10.9839 15.4165 11.8904C14.0598 12.7969 13.0024 14.0854 12.378 15.5929C11.7536 17.1004 11.5902 18.7592 11.9085 20.3595C12.2269 21.9598 13.0126 23.4298 14.1664 24.5836C15.3202 25.7374 16.7902 26.5232 18.3905 26.8415C19.9908 27.1598 21.6496 26.9964 23.1571 26.372C24.6646 25.7476 25.9531 24.6902 26.8596 23.3335C27.7661 21.9767 28.25 20.3817 28.25 18.75C28.2475 16.5627 27.3775 14.4657 25.8309 12.9191C24.2843 11.3725 22.1873 10.5025 20 10.5ZM20 24C18.9616 24 17.9466 23.6921 17.0833 23.1152C16.2199 22.5383 15.547 21.7184 15.1496 20.7591C14.7523 19.7998 14.6483 18.7442 14.8509 17.7258C15.0534 16.7074 15.5535 15.7719 16.2877 15.0377C17.0219 14.3035 17.9574 13.8034 18.9758 13.6009C19.9942 13.3983 21.0498 13.5023 22.0091 13.8996C22.9684 14.297 23.7883 14.9699 24.3652 15.8333C24.9421 16.6966 25.25 17.7116 25.25 18.75C25.25 20.1424 24.6969 21.4777 23.7123 22.4623C22.7277 23.4469 21.3924 24 20 24Z" fill="#FF4004"/>
</svg>
