<svg width="40" height="40" viewBox="0 0 40 40" fill="none" xmlns="http://www.w3.org/2000/svg">
<path d="M19.9999 12.4996C17.9258 12.4996 15.9366 13.2898 14.4699 14.6964C13.0033 16.103 12.1793 18.0108 12.1793 20C12.1793 21.9892 13.0033 23.897 14.4699 25.3036C15.9366 26.7102 17.9258 27.5004 19.9999 27.5004C22.0741 27.5004 24.0633 26.7102 25.5299 25.3036C26.9965 23.897 27.8205 21.9892 27.8205 20C27.8205 18.0108 26.9965 16.103 25.5299 14.6964C24.0633 13.2898 22.0741 12.4996 19.9999 12.4996ZM14.7862 20C14.7862 18.6739 15.3355 17.402 16.3133 16.4643C17.291 15.5266 18.6171 14.9998 19.9999 14.9998C21.3827 14.9998 22.7088 15.5266 23.6866 16.4643C24.6643 17.402 25.2136 18.6739 25.2136 20C25.2136 21.3261 24.6643 22.598 23.6866 23.5357C22.7088 24.4734 21.3827 25.0002 19.9999 25.0002C18.6171 25.0002 17.291 24.4734 16.3133 23.5357C15.3355 22.598 14.7862 21.3261 14.7862 20ZM15.3013 39.469C16.8435 39.822 18.4222 40 20.0072 40C21.5887 39.9984 23.1646 39.8192 24.7027 39.466C25.107 39.3726 25.4715 39.162 25.7466 38.8628C26.0216 38.5636 26.1938 38.1903 26.2397 37.7939L26.5921 34.7227C26.6517 34.1735 26.9137 33.6627 27.331 33.2823C27.7483 32.9019 28.2935 32.6768 28.8684 32.6476C29.2511 32.6316 29.6317 32.7006 29.9821 32.8476L32.9091 34.0787C33.1636 34.1885 33.4392 34.2461 33.7182 34.2478C33.9972 34.2495 34.2736 34.1953 34.5295 34.0887C34.7871 33.9837 35.0175 33.8277 35.2073 33.6307C37.3595 31.4058 38.9662 28.748 39.9101 25.8513C40.0336 25.467 40.0298 25.0554 39.899 24.6733C39.7683 24.2913 39.5171 23.9575 39.1801 23.7182L36.5795 21.8781C36.2698 21.6623 36.0177 21.3793 35.8439 21.0522C35.67 20.7251 35.5794 20.3631 35.5794 19.996C35.5794 19.6288 35.67 19.2669 35.8439 18.9398C36.0177 18.6127 36.2698 18.3297 36.5795 18.1139L39.1718 16.2778C39.5097 16.0381 39.7614 15.7035 39.8922 15.3204C40.023 14.9373 40.0263 14.5247 39.9017 14.1397C38.9576 11.2426 37.3489 8.58513 35.1937 6.36232C34.9082 6.06961 34.535 5.86912 34.1255 5.78852C33.7161 5.70791 33.2907 5.75116 32.908 5.9123L29.9821 7.14836C29.6797 7.27936 29.3502 7.34837 29.0165 7.34837C28.4159 7.34723 27.8369 7.13351 27.3904 6.74816C26.944 6.36282 26.6616 5.83299 26.5973 5.26026L26.2428 2.20011C26.1974 1.79847 26.0223 1.42048 25.7418 1.11905C25.4614 0.817613 25.0896 0.607819 24.6787 0.519026C23.1484 0.19137 21.5866 0.0174235 20.0187 0C18.44 0.0174739 16.8675 0.191746 15.3263 0.520026C14.9159 0.608313 14.5444 0.817431 14.264 1.11813C13.9836 1.41883 13.8081 1.79608 13.7622 2.19711L13.4077 5.25926C13.3408 5.83291 13.0557 6.36274 12.6069 6.74734C12.1488 7.12049 11.5716 7.33221 10.9708 7.34737C10.6395 7.34715 10.3117 7.2811 10.0083 7.15336L7.08866 5.9173C6.70471 5.75471 6.27749 5.71088 5.86636 5.79189C5.45524 5.87289 5.08064 6.07472 4.79463 6.36932C2.64247 8.59263 1.0357 11.2492 0.0918566 14.1447C-0.0328282 14.5295 -0.0295462 14.942 0.101248 15.325C0.232041 15.7079 0.483863 16.0423 0.821777 16.2818L3.41612 18.1179C3.87958 18.4464 4.20709 18.9214 4.34084 19.459C4.47459 19.9966 4.40597 20.5623 4.14709 21.0561C3.97493 21.3835 3.72489 21.6675 3.41717 21.8851L0.820734 23.7242C0.483114 23.9634 0.231468 24.2975 0.100682 24.6801C-0.0301048 25.0626 -0.0335534 25.4748 0.090814 25.8593C1.03299 28.7576 2.63989 31.4168 4.79359 33.6417C5.0781 33.9361 5.45132 34.1382 5.86122 34.2195C6.27112 34.3009 6.69729 34.2576 7.08032 34.0957L10.0188 32.8586C10.3222 32.7306 10.6496 32.6646 10.9812 32.6646H10.9896C11.5879 32.6654 12.1651 32.8772 12.6112 33.2596C13.0573 33.6421 13.3412 34.1685 13.4087 34.7387L13.7612 37.7959C13.8071 38.1929 13.9796 38.5666 14.2553 38.8661C14.5309 39.1655 14.8962 39.3761 15.3013 39.469ZM23.71 37.1239C21.27 37.6239 18.7465 37.6239 16.3065 37.1239L15.9895 34.4617C15.8517 33.2804 15.2653 32.1892 14.3421 31.396C13.419 30.6029 12.2237 30.1635 10.9844 30.1615H10.9739C10.2827 30.1588 9.59854 30.2951 8.9656 30.5615L6.41505 31.6346C4.76051 29.8448 3.4981 27.7543 2.70289 25.4873L4.96042 23.8872C5.59662 23.4373 6.11373 22.8504 6.47009 22.1737C6.82646 21.4971 7.01213 20.7496 7.01213 19.9915C7.01213 19.2334 6.82646 18.4859 6.47009 17.8093C6.11373 17.1326 5.59662 16.5457 4.96042 16.0958L2.70393 14.4957C3.50065 12.2312 4.76334 10.1432 6.41714 8.35542L8.95309 9.42747C9.58706 9.69712 10.2731 9.8358 10.9666 9.83449H10.9771C12.2194 9.83202 13.4173 9.39108 14.3424 8.59576C15.2674 7.80044 15.8548 6.70639 15.9926 5.52228L16.3055 2.86214C17.5288 2.62705 18.7722 2.50117 20.0197 2.48612C21.2575 2.50113 22.491 2.62613 23.7048 2.86114L24.0176 5.52028C24.1514 6.70433 24.7362 7.79937 25.6598 8.5955C26.5834 9.39162 27.7809 9.8328 29.0228 9.83449C29.7231 9.85036 30.4178 9.71 31.0519 9.42447L33.5858 8.35342C35.2406 10.141 36.5037 12.2295 37.3001 14.4947L35.0509 16.0878C34.4101 16.5357 33.8888 17.1224 33.5294 17.8002C33.17 18.478 32.9827 19.2276 32.9827 19.988C32.9827 20.7484 33.17 21.498 33.5294 22.1758C33.8888 22.8536 34.4101 23.4403 35.0509 23.8882L37.3084 25.4883C36.5113 27.7524 35.249 29.8403 33.5962 31.6286L31.0519 30.5585C30.3276 30.2503 29.5376 30.1108 28.7463 30.1512C27.955 30.1917 27.1849 30.411 26.4988 30.7913C25.8127 31.1715 25.2301 31.702 24.7986 32.3394C24.367 32.9767 24.0987 33.7029 24.0155 34.4587L23.71 37.1239Z" fill="#FF4004"/>
</svg>
