<svg width="30" height="30" viewBox="0 0 30 30" fill="none" xmlns="http://www.w3.org/2000/svg">
<g filter="url(#filter0_d_271_2000)">
<path fill-rule="evenodd" clip-rule="evenodd" d="M13.9126 2.02906C14.2569 1.96564 14.6117 2.00663 14.9322 2.14611C15.2526 2.2855 15.5229 2.51629 15.7117 2.80727C15.9003 3.09808 15.9999 3.43711 16 3.78241L16 7.03095C19.7414 7.26795 22.2742 8.85318 23.8455 11.341C25.4987 13.9586 26 17.4414 26 21C26 21.424 25.7327 21.8018 25.3329 21.943C24.9331 22.0841 24.4878 21.9578 24.2216 21.6278C22.9872 20.0973 22.0943 18.9971 20.8244 18.2297C19.7356 17.5717 18.2945 17.1206 16 17.0208L16 20.2164C15.9999 20.5617 15.9003 20.9008 15.7117 21.1916C15.5229 21.4826 15.2526 21.7134 14.9322 21.8528C14.6117 21.9922 14.2569 22.0332 13.9126 21.9698C13.5684 21.9064 13.2524 21.742 13.0028 21.4997L4.54125 13.2827C4.36907 13.1154 4.23276 12.9151 4.14013 12.6947C4.04752 12.4744 4 12.238 4 11.9994C4 11.7609 4.04752 11.5244 4.14013 11.3041C4.23276 11.0838 4.36883 10.8837 4.54101 10.7164L13.0027 2.49935C13.2522 2.25698 13.5684 2.09244 13.9126 2.02906ZM14 4.31872L14 9H15C18.7048 9 20.8619 10.3624 22.1545 12.409C23.1133 13.927 23.6422 15.8935 23.8675 18.1422C23.2708 17.5324 22.6219 16.9791 21.8589 16.518C20.2035 15.5176 18.1099 15 15 15H14L14 19.6801L6.09059 11.9994L14 4.31872Z" fill="white"/>
</g>
<defs>
<filter id="filter0_d_271_2000" x="-1" y="0" width="32" height="32" filterUnits="userSpaceOnUse" color-interpolation-filters="sRGB">
<feFlood flood-opacity="0" result="BackgroundImageFix"/>
<feColorMatrix in="SourceAlpha" type="matrix" values="0 0 0 0 0 0 0 0 0 0 0 0 0 0 0 0 0 0 127 0" result="hardAlpha"/>
<feOffset dy="4"/>
<feGaussianBlur stdDeviation="2"/>
<feComposite in2="hardAlpha" operator="out"/>
<feColorMatrix type="matrix" values="0 0 0 0 0 0 0 0 0 0 0 0 0 0 0 0 0 0 0.25 0"/>
<feBlend mode="normal" in2="BackgroundImageFix" result="effect1_dropShadow_271_2000"/>
<feBlend mode="normal" in="SourceGraphic" in2="effect1_dropShadow_271_2000" result="shape"/>
</filter>
</defs>
</svg>
